<?xml version="1.0" encoding="UTF-8"?>
<svg version="1.1" xmlns="http://www.w3.org/2000/svg" width="1024" height="1024">
<path d="M0 0 C337.92 0 675.84 0 1024 0 C1024 337.92 1024 675.84 1024 1024 C686.08 1024 348.16 1024 0 1024 C0 686.08 0 348.16 0 0 Z " fill="#FEFEFE" transform="translate(0,0)"/>
<path d="M0 0 C28.05 0 56.1 0 85 0 C91.74391371 10.11587057 91.74391371 10.11587057 94.41015625 14.79296875 C95.00070801 15.82389648 95.59125977 16.85482422 96.19970703 17.91699219 C96.81442871 18.99625977 97.42915039 20.07552734 98.0625 21.1875 C99.39361508 23.50964749 100.72543841 25.83136898 102.05859375 28.15234375 C102.55794434 29.02241562 102.55794434 29.02241562 103.06738281 29.9100647 C106.21123131 35.38172547 109.40824907 40.82096346 112.625 46.25 C113.15585205 47.14605957 113.6867041 48.04211914 114.23364258 48.96533203 C115.29696241 50.75886403 116.36067947 52.55216058 117.42480469 54.34521484 C120.03744102 58.74847081 122.64429853 63.1551375 125.25 67.5625 C125.78044922 68.45952637 126.31089844 69.35655273 126.85742188 70.28076172 C130.58712891 76.59367708 134.29738006 82.91783388 138.00097656 89.24609375 C151.51319578 112.33408574 165.12414901 135.36092298 179.04296875 158.20654297 C183.90632959 166.18955488 188.73129197 174.19442322 193.51147461 182.22753906 C193.96143799 182.98131836 194.41140137 183.73509766 194.875 184.51171875 C195.26429688 185.16615967 195.65359375 185.82060059 196.0546875 186.49487305 C196.91589673 187.99013562 196.91589673 187.99013562 198 189 C198 126.63 198 64.26 198 0 C213.18 0 228.36 0 244 0 C241.525 5.445 241.525 5.445 239 11 C234.88853246 22.94817386 236.34572037 35.42835064 241 47 C243.10106679 50.88944218 245.31508151 54.58573584 248.7265625 57.44921875 C250 59 250 59 249.92578125 61.1015625 C249.72339844 61.93429687 249.52101563 62.76703125 249.3125 63.625 C248.19100704 68.80058554 247.46450494 73.93076105 246.875 79.1875 C246.74411987 80.33822998 246.74411987 80.33822998 246.6105957 81.51220703 C246.40409013 83.34113804 246.20160713 85.17052254 246 87 C254.46169612 86.13213373 262.00331333 85.04946509 269.92578125 81.8046875 C272 81 272 81 274 81 C274 163.5 274 246 274 331 C248.59 331 223.18 331 197 331 C192.91606718 324.87410076 189.01597494 318.78141541 185.3125 312.4375 C184.17881137 310.50756222 183.04466729 308.57789194 181.91015625 306.6484375 C181.29285645 305.5975293 180.67555664 304.54662109 180.03955078 303.46386719 C176.53999547 297.51425725 173.01245046 291.58118345 169.48764038 285.64651489 C168.28725244 283.62522795 167.08754384 281.60353915 165.88793945 279.58178711 C158.66565306 267.41419833 151.39915879 255.275061 144.02709961 243.19750977 C136.51488389 230.88464168 129.13404211 218.50229159 121.88476562 206.03271484 C117.99524132 199.35442078 114.020002 192.7401334 109.95336914 186.16821289 C106.84002283 181.11860721 103.79575011 176.02806499 100.75 170.9375 C99.55731851 168.9465985 98.36460915 166.9557137 97.171875 164.96484375 C95.79515625 162.66644531 94.4184375 160.36804688 93 158 C87.06 148.1 87.06 148.1 81 138 C80.67 201.69 80.34 265.38 80 331 C53.6 331 27.2 331 0 331 C0 221.77 0 112.54 0 0 Z " fill="#434B4C" transform="translate(347,281)"/>
<path d="M0 0 C15.18 0 30.36 0 46 0 C43.525 5.445 43.525 5.445 41 11 C36.88853246 22.94817386 38.34572037 35.42835064 43 47 C45.10106679 50.88944218 47.31508151 54.58573584 50.7265625 57.44921875 C52 59 52 59 51.92578125 61.1015625 C51.72339844 61.93429687 51.52101563 62.76703125 51.3125 63.625 C50.19100704 68.80058554 49.46450494 73.93076105 48.875 79.1875 C48.74411987 80.33822998 48.74411987 80.33822998 48.6105957 81.51220703 C48.40409013 83.34113804 48.20160713 85.17052254 48 87 C56.46169612 86.13213373 64.00331333 85.04946509 71.92578125 81.8046875 C74 81 74 81 76 81 C76 163.5 76 246 76 331 C50.59 331 25.18 331 -1 331 C-5.08393282 324.87410076 -8.98402506 318.78141541 -12.6875 312.4375 C-13.82118863 310.50756222 -14.95533271 308.57789194 -16.08984375 306.6484375 C-16.70714355 305.5975293 -17.32444336 304.54662109 -17.96044922 303.46386719 C-21.46000453 297.51425725 -24.98754954 291.58118345 -28.51235962 285.64651489 C-29.71274756 283.62522795 -30.91245616 281.60353915 -32.11206055 279.58178711 C-39.33434694 267.41419833 -46.60084121 255.275061 -53.97290039 243.19750977 C-61.48511611 230.88464168 -68.86595789 218.50229159 -76.11523438 206.03271484 C-80.05340171 199.27090092 -84.08002052 192.58205213 -88.23608398 185.95288086 C-89.96967896 183.05075889 -91.48820216 180.02359567 -93 177 C-64.95 176.67 -36.9 176.34 -8 176 C-5.69 179.96 -3.38 183.92 -1 188 C-0.67 188.33 -0.34 188.66 0 189 C0 126.63 0 64.26 0 0 Z " fill="#64ACC4" transform="translate(545,281)"/>
<path d="M0 0 C0.93585938 0.42410156 1.87171875 0.84820312 2.8359375 1.28515625 C13.68943096 6.62269618 20.66050473 14.29093113 25.7421875 25.24609375 C28.8046759 34.38600479 28.00256541 43.75768589 24.25390625 52.57421875 C17.84525653 64.97226073 7.19357732 71.42852765 -5.67578125 75.9375 C-14.57511633 78.44231962 -23.6044604 78.44239747 -32.79907227 78.53417969 C-39.00500152 78.64665438 -43.51530274 79.04115016 -49 82 C-49.74507812 82.37382812 -50.49015625 82.74765625 -51.2578125 83.1328125 C-52.18207031 83.62394531 -52.18207031 83.62394531 -53.125 84.125 C-56.06572297 85.62396774 -58.69143772 86.58642971 -62 87 C-62.15602933 83.1772813 -62.05501008 80.18120966 -60.9375 76.5 C-59.82148113 72.33352956 -59.76401735 70.14417712 -61 66 C-62.4629876 64.11048396 -62.4629876 64.11048396 -64.25 62.25 C-71.87032665 53.96976878 -73.73009158 45.92059152 -73.51269531 34.91650391 C-72.91628693 22.09882128 -67.20841022 14.50763667 -58 6 C-54.82043214 3.53521871 -51.64468627 1.69077612 -48 0 C-47.19175781 -0.40992188 -46.38351562 -0.81984375 -45.55078125 -1.2421875 C-32.36887822 -6.82284717 -12.78046467 -6.35066433 0 0 Z " fill="#63ABC4" transform="translate(667,270)"/>
<path d="M0 0 C5.28 0 10.56 0 16 0 C19.14928839 3.21992664 20.85987782 5.28844977 22.90759277 9.0760498 C24.62563493 12.10186973 26.61049511 14.93790175 28.56964111 17.81134033 C30.28274067 20.32564948 31.97074816 22.85515287 33.65234375 25.390625 C34.2232373 26.25107422 34.79413086 27.11152344 35.38232422 27.99804688 C35.95740723 28.86494141 36.53249023 29.73183594 37.125 30.625 C38.29014661 32.37774909 39.45550978 34.13035423 40.62109375 35.8828125 C42.76842896 39.11190604 44.91447934 42.341845 47.05908203 45.57275391 C50.03441585 50.05180948 53.01725216 54.52587824 56 59 C56.33 39.53 56.66 20.06 57 0 C62.94 0 68.88 0 75 0 C75 29.37 75 58.74 75 89 C57 89 57 89 53.0234375 85.671875 C51.65698242 83.35864258 51.65698242 83.35864258 50.375 80.75 C49.28086033 78.84932797 48.18002148 76.95250402 47.07421875 75.05859375 C46.4611084 73.9691748 45.84799805 72.87975586 45.21630859 71.75732422 C41.14095847 64.6987175 36.41447278 58.02575253 31.85162354 51.27770996 C29.17067159 47.30618423 26.51214223 43.31982118 23.85546875 39.33203125 C23.1424334 38.26614525 23.1424334 38.26614525 22.41499329 37.1787262 C19.11510357 32.23020714 19.11510357 32.23020714 18 30 C17.67 49.47 17.34 68.94 17 89 C11.39 89 5.78 89 0 89 C0 59.63 0 30.26 0 0 Z " fill="#61ABC4" transform="translate(550,667)"/>
<path d="M0 0 C17 0 17 0 21.43334961 3.80102539 C22.56792406 5.52764344 23.63897244 7.29722639 24.65234375 9.09765625 C25.24825821 10.03870712 25.84417267 10.979758 26.45814514 11.94932556 C28.34374179 14.95488803 30.14014007 18.00352933 31.9375 21.0625 C33.16687195 23.05883148 34.40186037 25.05171569 35.64257812 27.04101562 C37.95499829 30.7598577 40.22848843 34.49757916 42.47241211 38.25805664 C46.79329239 45.29126194 51.42125368 52.13188051 56 59 C56.33 39.53 56.66 20.06 57 0 C62.94 0 68.88 0 75 0 C75 29.37 75 58.74 75 89 C69.06 89 63.12 89 57 89 C53.51532896 84.96377201 52.04064974 82.65153781 50 78 C48.90229667 76.26927942 47.76595443 74.56240952 46.59082031 72.88330078 C46.0204303 72.03937775 45.45004028 71.19545471 44.86236572 70.32595825 C43.97916656 69.0237886 43.97916656 69.0237886 43.078125 67.6953125 C42.45145935 66.76830536 41.8247937 65.84129822 41.17913818 64.88619995 C39.20416979 61.96484248 37.22730477 59.04477652 35.25 56.125 C33.25848834 53.18374977 31.26744288 50.24219025 29.27801514 47.29953003 C28.04719455 45.47897193 26.8151946 43.65921043 25.58184814 41.84036255 C25.02406677 41.01535248 24.4662854 40.19034241 23.89160156 39.34033203 C23.40419495 38.62072296 22.91678833 37.90111389 22.41461182 37.15969849 C20.87834872 34.81427407 19.44252719 32.40421199 18 30 C17.67 49.47 17.34 68.94 17 89 C11.39 89 5.78 89 0 89 C0 59.63 0 30.26 0 0 Z " fill="#3C4647" transform="translate(170,667)"/>
<path d="M0 0 C5.61 0 11.22 0 17 0 C20.63 14.19 24.26 28.38 28 43 C29.74116563 40.38825156 30.44432769 38.9086991 31.23681641 35.98754883 C31.45689362 35.18694534 31.67697083 34.38634186 31.90371704 33.56147766 C32.13400604 32.70201035 32.36429504 31.84254303 32.6015625 30.95703125 C32.8428891 30.0734343 33.0842157 29.18983734 33.33285522 28.27946472 C34.10204298 25.45851219 34.86360542 22.63556482 35.625 19.8125 C36.14533226 17.89895222 36.66615962 15.98553899 37.1875 14.07226562 C38.46408234 9.38305207 39.73383002 4.69203528 41 0 C46.28 0 51.56 0 57 0 C57.32274902 1.1960083 57.64549805 2.3920166 57.97802734 3.62426758 C59.17642157 8.05937631 60.38203465 12.49249566 61.58984375 16.92504883 C62.11167504 18.84410936 62.63154456 20.76370446 63.14941406 22.68383789 C63.89393795 25.44299779 64.6454855 28.20016111 65.3984375 30.95703125 C65.6287265 31.81649857 65.8590155 32.67596588 66.09628296 33.56147766 C66.31636017 34.36208115 66.53643738 35.16268463 66.76318359 35.98754883 C66.95415619 36.6914827 67.14512878 37.39541656 67.34188843 38.12068176 C68.01452191 40.29102311 68.01452191 40.29102311 70 43 C73.63 28.81 77.26 14.62 81 0 C86.61 0 92.22 0 98 0 C96.27469006 8.52169661 93.78786686 16.79922292 91.3125 25.125 C90.86523797 26.63715996 90.41813639 28.14936739 89.97119141 29.66162109 C86.37999992 41.79443281 82.71937755 53.90586505 79 66 C73.39 66 67.78 66 62 66 C59.89890149 60.57505442 58.09080502 55.16170771 56.51953125 49.5625 C56.19295784 48.41418701 56.19295784 48.41418701 55.85978699 47.24267578 C55.17421489 44.82932872 54.49327923 42.41470292 53.8125 40 C53.34470878 38.35017313 52.87661258 36.7004327 52.40820312 35.05078125 C51.2686113 31.03484371 50.13317179 27.01775357 49 23 C45.35278267 34.82223285 41.73267368 46.64285199 38.51098633 58.58935547 C37.09622336 63.80755328 37.09622336 63.80755328 36 66 C30.39 66 24.78 66 19 66 C16.51830453 57.83895974 14.04012034 49.6768787 11.56812286 41.51289654 C10.42017253 37.72219984 9.2706818 33.93198454 8.11767578 30.14282227 C7.00530771 26.48700696 5.89697954 22.82998948 4.79145813 19.17209816 C4.36867844 17.77579864 3.94443758 16.37994068 3.51872253 14.98453331 C2.92334488 13.03211863 2.33361039 11.07798579 1.74414062 9.1237793 C1.40660767 8.0112529 1.06907471 6.8987265 0.72131348 5.75248718 C0 3 0 3 0 0 Z " fill="#61AAC3" transform="translate(705,690)"/>
<path d="M0 0 C7.33499427 4.37022037 12.43986973 10.71370651 14.82421875 18.94921875 C15.71794673 24.43457673 15.6452146 30.02949556 15.25 35.5625 C13.69341518 37.11908482 12.17132264 36.72559399 10.00561523 36.76782227 C8.65432777 36.7977401 8.65432777 36.7977401 7.27574158 36.82826233 C6.29658279 36.84497482 5.31742401 36.86168732 4.30859375 36.87890625 C2.81248314 36.9100779 2.81248314 36.9100779 1.28614807 36.94187927 C-1.91332843 37.00748637 -5.11288982 37.06631134 -8.3125 37.125 C-10.47592039 37.16817462 -12.63933206 37.21178855 -14.80273438 37.25585938 C-20.11839874 37.36317903 -25.43414834 37.46492427 -30.75 37.5625 C-30.3109623 38.84811856 -29.86089194 40.12997271 -29.40625 41.41015625 C-29.15681641 42.12437744 -28.90738281 42.83859863 -28.65039062 43.57446289 C-27.32557895 46.4996097 -25.43246846 47.88595721 -22.75 49.5625 C-17.49021691 51.31576103 -12.54312746 51.25982734 -7.375 49.25 C-4.77901681 47.8067218 -4.77901681 47.8067218 -3.59765625 45.96875 C-0.59072198 43.68017424 2.82236078 44.25186425 6.4375 44.375 C7.56188477 44.39530273 7.56188477 44.39530273 8.70898438 44.41601562 C10.55629767 44.45131461 12.40324066 44.50512083 14.25 44.5625 C11.28018904 53.89989691 6.37073822 59.71764543 -2.125 64.4375 C-11.08740554 67.36078462 -23.18911046 66.94117472 -31.67578125 62.8203125 C-39.08130448 58.3295809 -43.95348311 52.62426514 -46.86328125 44.42578125 C-47.93171109 39.77081599 -48.11782224 35.44635551 -48.125 30.6875 C-48.14949219 29.84058594 -48.17398438 28.99367188 -48.19921875 28.12109375 C-48.24155482 18.90594288 -44.89143547 12.05411459 -38.6875 5.35546875 C-28.4967881 -4.07504891 -12.59734982 -5.79446078 0 0 Z " fill="#63ACC4" transform="translate(685.75,691.4375)"/>
<path d="M0 0 C7.41220725 4.27397434 11.02484369 10.59636349 14.3125 18.3671875 C15.28579681 24.20696836 14.9375 30.19685413 14.9375 36.1171875 C-0.2425 36.4471875 -15.4225 36.7771875 -31.0625 37.1171875 C-28.29379656 45.29872183 -28.29379656 45.29872183 -22.2421875 49.2734375 C-17.37320986 51.15820304 -13.00925197 50.67887463 -8.1875 48.7421875 C-5.05936321 47.31480496 -5.05936321 47.31480496 -3.0625 45.1171875 C-0.31764407 44.97211055 2.32230543 44.93066327 5.0625 44.9921875 C5.81660156 45.00121094 6.57070313 45.01023437 7.34765625 45.01953125 C9.21107254 45.0431188 11.07432593 45.07899031 12.9375 45.1171875 C11.75220449 52.00817022 8.20628476 56.49996575 2.8203125 60.79296875 C-5.06792879 66.34092269 -14.77128348 66.15345238 -24.0625 65.1171875 C-27.4623987 64.252097 -30.12022142 63.00198752 -33.0625 61.1171875 C-33.68253906 60.77816406 -34.30257813 60.43914063 -34.94140625 60.08984375 C-41.34521348 56.20329984 -44.79927919 49.74357648 -47.2109375 42.8203125 C-49.64808609 32.22207002 -49.35176218 20.20638471 -43.65625 10.79296875 C-33.92542588 -3.09181567 -15.24030994 -7.46569237 0 0 Z " fill="#3E4849" transform="translate(522.0625,691.8828125)"/>
<path d="M0 0 C0.89460938 -0.00628418 1.78921875 -0.01256836 2.7109375 -0.01904297 C9.73165335 0.11467259 15.59699549 1.16395075 21.125 5.8125 C28.44545101 14.55637204 29.69129984 22.0720688 29.5703125 33.125 C29.5674826 34.11250244 29.56465271 35.10000488 29.56173706 36.11743164 C29.5506182 39.24508215 29.52552916 42.37243728 29.5 45.5 C29.48995948 47.63150626 29.48083551 49.76301704 29.47265625 51.89453125 C29.45070607 57.0964665 29.41623391 62.29818331 29.375 67.5 C24.095 67.5 18.815 67.5 13.375 67.5 C13.045 65.85 12.715 64.2 12.375 62.5 C11.323125 63.428125 11.323125 63.428125 10.25 64.375 C3.37788997 69.45438567 -4.4011789 69.2433431 -12.625 68.5 C-18.94232095 66.83597382 -22.97693435 62.76809481 -26.625 57.5 C-29.16255144 53.1169566 -29.2920817 48.4413459 -28.625 43.5 C-26.90608066 38.22245304 -24.41736262 34.44076797 -19.625 31.5 C-13.81127362 28.87673322 -8.17182459 27.36098823 -1.76171875 27.40234375 C-0.43237305 27.40717773 -0.43237305 27.40717773 0.92382812 27.41210938 C1.83583984 27.42048828 2.74785156 27.42886719 3.6875 27.4375 C4.61884766 27.44201172 5.55019531 27.44652344 6.50976562 27.45117188 C8.79824373 27.46290766 11.08658808 27.47932637 13.375 27.5 C13.10706408 26.05111252 12.82423446 24.60497402 12.53515625 23.16015625 C12.37926025 22.35457275 12.22336426 21.54898926 12.06274414 20.71899414 C11.46997769 18.19687011 11.46997769 18.19687011 8.8125 15.9375 C3.52286005 13.72546875 -1.06911792 13.79305389 -6.5625 15.3125 C-8.92575076 16.46980353 -8.92575076 16.46980353 -10.625 19.5 C-13.8125 19.828125 -13.8125 19.828125 -17.625 19.75 C-18.883125 19.73453125 -20.14125 19.7190625 -21.4375 19.703125 C-24.625 19.5 -24.625 19.5 -26.625 18.5 C-26.34137646 13.77294094 -25.65452698 10.41325637 -22.28515625 6.921875 C-15.35389926 0.98545725 -8.90945489 0.04795019 0 0 Z " fill="#3D4749" transform="translate(286.625,688.5)"/>
<path d="M0 0 C0.87333984 -0.02900391 1.74667969 -0.05800781 2.64648438 -0.08789062 C9.73746579 -0.1567351 14.96125616 1.36237029 20.3359375 6.09375 C20.78195312 6.6609375 21.22796875 7.228125 21.6875 7.8125 C22.14898438 8.3796875 22.61046875 8.946875 23.0859375 9.53125 C25.65192036 13.25764549 26.56705146 15.73057365 26.3125 20.3125 C23.7066111 20.44744246 21.10767889 20.54652299 18.5 20.625 C17.76201172 20.66689453 17.02402344 20.70878906 16.26367188 20.75195312 C14.10546875 20.80078125 14.10546875 20.80078125 10.3125 20.3125 C8.41015625 17.875 8.41015625 17.875 7.3125 15.3125 C3.89321806 12.74803855 0.4623078 13.01608516 -3.6875 13.3125 C-6.09313594 13.76339819 -6.09313594 13.76339819 -7.6875 15.3125 C-8.50334568 18.37158413 -8.50334568 18.37158413 -8.6875 21.3125 C-4.37310165 25.41354898 1.43645467 25.99064217 7.05078125 27.2421875 C14.98848301 29.15428047 21.70111349 32.3031925 26.3125 39.3125 C28.23820993 45.08962979 28.21437619 51.1224294 25.625 56.6875 C22.28191601 62.51736927 16.94869445 65.76710185 10.63671875 67.87109375 C1.71267657 69.56591185 -8.68431077 69.72206856 -16.6015625 64.92578125 C-23.24232957 59.78975728 -25.92548979 55.41944119 -27.6875 47.3125 C-24.91504986 47.17762405 -22.14912912 47.07849193 -19.375 47 C-18.58931641 46.95810547 -17.80363281 46.91621094 -16.99414062 46.87304688 C-14.78811351 46.82611013 -12.8433307 46.83553612 -10.6875 47.3125 C-8.83203125 49.70703125 -8.83203125 49.70703125 -7.6875 52.3125 C-3.23776097 55.27899269 1.0945536 54.9442693 6.3125 54.3125 C9.1802118 52.8689152 9.1802118 52.8689152 10.3125 50.3125 C10.55651278 47.69858611 10.55651278 47.69858611 9.3125 45.3125 C5.16770153 42.20390115 0.95854783 41.42248758 -4 40.4375 C-12.75614839 38.53107687 -19.54537639 36.12852789 -24.6875 28.3125 C-26.56654976 22.67535071 -26.58893313 16.58025589 -24.25 11.0625 C-19.04020392 1.82354508 -9.65502677 0.10456708 0 0 Z " fill="#61AAC3" transform="translate(833.6875,688.6875)"/>
<path d="M0 0 C5.61 0 11.22 0 17 0 C20.80379597 9.03854376 23.76999052 18.29230234 26.75 27.625 C27.2613938 29.2175523 27.77311009 30.81000108 28.28515625 32.40234375 C29.52715653 36.26704644 30.76479141 40.13312151 32 44 C34.32397254 40.51404118 35.46713417 36.95356018 36.75 33.0078125 C37.0087793 32.22485809 37.26755859 31.44190369 37.53417969 30.63522339 C38.36039113 28.13319927 39.18048774 25.62922554 40 23.125 C40.82052786 20.62826471 41.64235165 18.13196685 42.46582031 15.63619995 C42.97752905 14.08420662 43.48738152 12.53159966 43.99511719 10.978302 C44.22875977 10.26761566 44.46240234 9.55692932 44.703125 8.82470703 C44.90583008 8.20532257 45.10853516 7.58593811 45.31738281 6.94778442 C46.13845554 4.60493005 47.07799865 2.30500337 48 0 C53.61 0 59.22 0 65 0 C62.88325804 7.22136561 60.56409602 14.34173954 58.09375 21.44921875 C57.7277771 22.50607376 57.3618042 23.56292877 56.98474121 24.65180969 C56.21596872 26.86987899 55.44613763 29.08758163 54.67529297 31.30493164 C53.50012923 34.68712807 52.32994791 38.07102046 51.16015625 41.45507812 C50.40915371 43.6198956 49.65786155 45.78461264 48.90625 47.94921875 C48.55929077 48.95353439 48.21233154 49.95785004 47.8548584 50.99259949 C47.52441528 51.9408107 47.19397217 52.88902191 46.85351562 53.8659668 C46.5672229 54.6907402 46.28093018 55.51551361 45.98596191 56.36528015 C44.76784041 59.6203845 43.36909055 62.80545537 42 66 C35.73 66 29.46 66 23 66 C17.76452591 51.87639547 12.6363974 37.71548451 7.5324707 23.54394531 C7.25641495 22.77799545 6.98035919 22.01204559 6.69593811 21.22288513 C6.17784846 19.78527641 5.66018474 18.34751407 5.14305115 16.90956116 C4.78655235 15.92045998 4.78655235 15.92045998 4.42285156 14.91137695 C4.19247192 14.27084381 3.96209229 13.63031067 3.72473145 12.97036743 C3.21516017 11.58496785 2.68985982 10.20530212 2.15319824 8.83016968 C0 3.29926187 0 3.29926187 0 0 Z " fill="#3C4547" transform="translate(406,690)"/>
<path d="M0 0 C0 5.94 0 11.88 0 18 C4.95 18 9.9 18 15 18 C15 22.29 15 26.58 15 31 C10.05 31 5.1 31 0 31 C0.09737789 35.28718988 0.20037536 39.57351049 0.31738281 43.86010742 C0.35546427 45.31575518 0.390352 46.77149037 0.421875 48.22729492 C0.46798255 50.33023148 0.52589547 52.43257675 0.5859375 54.53515625 C0.63306885 56.42826538 0.63306885 56.42826538 0.68115234 58.35961914 C1.0178523 62.20382514 1.82488926 65.34066393 3 69 C6.96 69.66 10.92 70.32 15 71 C15 75.29 15 79.58 15 84 C7.26796019 85.93300995 0.23407875 85.48503064 -7 82 C-11.97076063 78.99442381 -14.67923013 75.6834539 -16.42871094 70.04980469 C-17.75811871 62.95281242 -17.2990402 55.62868601 -17.1875 48.4375 C-17.17242858 46.7441525 -17.15874451 45.05079206 -17.14648438 43.35742188 C-17.11366704 39.23795778 -17.06202063 35.1191237 -17 31 C-20.3 31 -23.6 31 -27 31 C-27 26.71 -27 22.42 -27 18 C-23.7 18 -20.4 18 -17 18 C-17 12.72 -17 7.44 -17 2 C-4.5 0 -4.5 0 0 0 Z " fill="#3D4749" transform="translate(351,672)"/>
<path d="M0 0 C5.28 0 10.56 0 16 0 C16 21.78 16 43.56 16 66 C10.72 66 5.44 66 0 66 C0 44.22 0 22.44 0 0 Z " fill="#394344" transform="translate(379,690)"/>
<path d="M0 0 C4.77985327 4.20047712 5.97653482 6.29670893 7.0625 12.8125 C-3.1675 12.8125 -13.3975 12.8125 -23.9375 12.8125 C-22.80467448 7.14837239 -21.15209301 3.82576637 -16.875 -0.0625 C-11.43040195 -2.14766521 -5.41239956 -2.18799131 0 0 Z " fill="#FCFDFE" transform="translate(677.9375,703.1875)"/>
<path d="M0 0 C5.18696469 1.72898823 7.4872779 4.16784212 10 9 C10 10.65 10 12.3 10 14 C0.1 14 -9.8 14 -20 14 C-16.95410042 3.33935148 -11.42284838 -2.06991212 0 0 Z " fill="#FBFBFB" transform="translate(510,702)"/>
<path d="M0 0 C0.84755859 0.00322266 1.69511719 0.00644531 2.56835938 0.00976562 C3.8899707 0.02233398 3.8899707 0.02233398 5.23828125 0.03515625 C6.57729492 0.04192383 6.57729492 0.04192383 7.94335938 0.04882812 C10.14590112 0.06060642 12.34830724 0.07705461 14.55078125 0.09765625 C14.4616225 1.53625996 14.35222495 2.9736183 14.234375 4.41015625 C14.17564209 5.21066406 14.11690918 6.01117187 14.05639648 6.8359375 C13.18049985 10.75399951 10.8247189 11.95957452 7.55078125 14.09765625 C4.74213911 15.50197732 2.30694575 15.38118403 -0.82421875 15.47265625 C-1.96632813 15.52164063 -3.1084375 15.570625 -4.28515625 15.62109375 C-7.44921875 15.09765625 -7.44921875 15.09765625 -9.83203125 12.734375 C-11.64925514 9.77150996 -12.1460201 8.49456284 -11.44921875 5.09765625 C-8.10402278 0.94499918 -5.20405947 -0.03492657 0 0 Z " fill="#FAFBFB" transform="translate(285.44921875,727.90234375)"/>
<path d="M0 0 C2.875 1.5625 2.875 1.5625 5 4 C6.1659741 8.00803597 6.43240501 10.05282711 4.6875 13.875 C3 16 3 16 1 17 C-5.99869622 17.68839635 -5.99869622 17.68839635 -10 14.9375 C-12.52975133 11.22192774 -12.7878128 9.4117517 -12 5 C-8.57935012 0.12816532 -5.85570965 -0.94109619 0 0 Z " fill="#3B4446" transform="translate(389,663)"/>
<path d="M0 0 C3.4375 0.8125 3.4375 0.8125 5.4375 3.8125 C5.25 7.375 5.25 7.375 4.4375 10.8125 C1.4375 12.8125 1.4375 12.8125 -2.125 12.625 C-5.5625 11.8125 -5.5625 11.8125 -7.5625 8.8125 C-7.375 5.25 -7.375 5.25 -6.5625 1.8125 C-3.5625 -0.1875 -3.5625 -0.1875 0 0 Z " fill="#F7FBFC" transform="translate(644.5625,302.1875)"/>
<path d="M0 0 C3.4375 0.8125 3.4375 0.8125 5.4375 3.8125 C5.25 7.375 5.25 7.375 4.4375 10.8125 C1.4375 12.8125 1.4375 12.8125 -2.125 12.625 C-5.5625 11.8125 -5.5625 11.8125 -7.5625 8.8125 C-7.375 5.25 -7.375 5.25 -6.5625 1.8125 C-3.5625 -0.1875 -3.5625 -0.1875 0 0 Z " fill="#F7FBFC" transform="translate(621.5625,302.1875)"/>
<path d="M0 0 C2.4375 2.1875 2.4375 2.1875 4 5 C3.93148663 7.87756134 3.3436338 9.427277 1.875 11.875 C-1.18336891 13.71002135 -3.65608204 12.79038061 -7 12 C-9 10 -9 10 -9.3125 6.5625 C-9 3 -9 3 -7.875 1.0625 C-5.0300175 -0.54965675 -3.2088071 -0.52388687 0 0 Z " fill="#F8FBFC" transform="translate(669,302)"/>
<path d="M0 0 C5.28 0 10.56 0 16 0 C16 4.29 16 8.58 16 13 C11.05 13 6.1 13 1 13 C1 23.89 1 34.78 1 46 C0.67 46 0.34 46 0 46 C-0.0246519 41.17619198 -0.04283693 36.35242033 -0.05493164 31.52856445 C-0.05997174 29.88630536 -0.06680378 28.24405077 -0.07543945 26.60180664 C-0.08751926 24.24624521 -0.09323139 21.89074291 -0.09765625 19.53515625 C-0.10281754 18.79660904 -0.10797882 18.05806183 -0.11329651 17.2971344 C-0.1134925 15.53101912 -0.06194719 13.76502854 0 12 C1 11 1 11 3.94140625 10.90234375 C5.73384766 10.91974609 5.73384766 10.91974609 7.5625 10.9375 C9.35880859 10.95103516 9.35880859 10.95103516 11.19140625 10.96484375 C12.11824219 10.97644531 13.04507812 10.98804688 14 11 C14 8.03 14 5.06 14 2 C9.71 2 5.42 2 1 2 C0.67 1.34 0.34 0.68 0 0 Z " fill="#263133" transform="translate(350,690)"/>
<path d="M0 0 C5.61 0 11.22 0 17 0 C17 0.66 17 1.32 17 2 C15.62714844 2.03867187 15.62714844 2.03867187 14.2265625 2.078125 C12.44378906 2.16320312 12.44378906 2.16320312 10.625 2.25 C9.44164062 2.29640625 8.25828125 2.3428125 7.0390625 2.390625 C3.88708247 2.65648799 3.88708247 2.65648799 2.5859375 5.046875 C2.39257812 5.69140625 2.19921875 6.3359375 2 7 C1.34 4.69 0.68 2.38 0 0 Z " fill="#52A4C0" transform="translate(806,736)"/>
<path d="M0 0 C1.98 1.65 3.96 3.3 6 5 C5.71617054 6.75128818 5.42260471 8.50100003 5.125 10.25 C4.96257813 11.22453125 4.80015625 12.1990625 4.6328125 13.203125 C4.05144152 15.77264117 3.29159735 17.72071056 2 20 C2.10699219 19.03578125 2.21398437 18.0715625 2.32421875 17.078125 C2.50404297 15.18320312 2.50404297 15.18320312 2.6875 13.25 C2.81511719 11.99703125 2.94273437 10.7440625 3.07421875 9.453125 C2.99337314 5.69167678 2.45533204 4.70149644 0 2 C0 1.34 0 0.68 0 0 Z " fill="#4EA0BC" transform="translate(591,335)"/>
<path d="M0 0 C0.99 0.33 1.98 0.66 3 1 C0.69 3.64 -1.62 6.28 -4 9 C-4.33 8.34 -4.66 7.68 -5 7 C-3.35 4.69 -1.7 2.38 0 0 Z " fill="#2A3537" transform="translate(483,697)"/>
</svg>
